<?xml version="1.0" encoding="utf-8"?>
<!-- Generator: Adobe Illustrator 25.2.3, SVG Export Plug-In . SVG Version: 6.00 Build 0)  -->
<svg version="1.1" id="Layer_1" xmlns="http://www.w3.org/2000/svg" xmlns:xlink="http://www.w3.org/1999/xlink" x="0px" y="0px"
	 viewBox="0 0 24 24" style="enable-background:new 0 0 24 24;" xml:space="preserve">
<style type="text/css">
	.st0{fill-rule:evenodd;clip-rule:evenodd;fill:#053EA8;}
	.st1{fill:#FFFFFF;}
</style>
<path class="st0" d="M13.9,24h-3.8c-0.7-1.9-0.8-2.7-1.8-3.1c-1-0.4-1.7,0.1-3.5,1l-2.7-2.7c0.9-1.8,1.4-2.5,1-3.5
	c-0.4-1-1.2-1.1-3.1-1.8v-3.8c1.9-0.7,2.7-0.8,3.1-1.8s-0.1-1.6-1-3.5l2.7-2.7c1.7,0.8,2.5,1.4,3.5,1c1-0.4,1.1-1.2,1.8-3.1h3.8
	c0.7,1.9,0.8,2.7,1.8,3.1c1,0.4,1.7-0.1,3.5-1l2.7,2.7c-0.9,1.8-1.4,2.5-1,3.5c0.4,1,1.2,1.1,3.1,1.8v3.8c-1.9,0.7-2.7,0.8-3.1,1.8
	c-0.4,1,0,1.6,1,3.5l-2.7,2.7c-1.7-0.8-2.5-1.4-3.5-1C14.7,21.3,14.6,22,13.9,24"/>
<g id="XMLID_1_">
	<g>
		<path class="st1" d="M23,10.8v2.4c-1.3,0.4-2.5,0.7-3,2.1c-0.6,1.4,0.2,2.6,0.7,3.6l-1.7,1.7c-1-0.5-2.1-1.3-3.6-0.7
			c-1.4,0.6-1.7,1.9-2.1,3h-2.4c-0.5-1.3-0.7-2.5-2.1-3c-1.3-0.5-2.2-0.1-3.7,0.7l-1.7-1.7c0.6-1.2,1.2-2.2,0.7-3.7
			c-0.6-1.4-1.8-1.7-3.1-2.1v-2.4c1.3-0.5,2.5-0.7,3.1-2.1C4.6,7.3,4,6.2,3.4,5.1l1.7-1.7c1,0.5,1.7,0.9,2.6,0.9
			c0.4,0,0.7-0.1,1.1-0.2c1.4-0.6,1.7-1.8,2.1-3.1h2.4c0.5,1.3,0.7,2.5,2.1,3.1c1.4,0.6,2.5-0.1,3.6-0.7l1.7,1.7
			C20,6.3,19.4,7.3,20,8.7C20.5,10.1,21.8,10.4,23,10.8z M16.3,12c0-2.4-1.9-4.3-4.3-4.3S7.7,9.6,7.7,12s1.9,4.3,4.3,4.3
			S16.3,14.4,16.3,12z"/>
		<circle class="st1" cx="12" cy="12" r="3.3"/>
	</g>
	<g>
	</g>
</g>
</svg>
