<svg id="Layer_1" data-name="Layer 1" xmlns="http://www.w3.org/2000/svg" viewBox="0 0 134.21334 134.21334"><defs><style>.cls-1{fill:#0071bc;}</style></defs><path class="cls-1" d="M167.57386,190.80109l-31.64781-31.6478a12.03528,12.03528,0,0,1,0-16.97056l13.607-13.607a12.03527,12.03527,0,0,1,16.97056,0l31.64781,31.6478" transform="translate(-131.04649 -123.69272)"/><path class="cls-1" d="M228.729,190.80109l31.64781,31.64781a12.03528,12.03528,0,0,1,0,16.97056l-13.607,13.607a12.03527,12.03527,0,0,1-16.97056,0l-31.64781-31.64781" transform="translate(-131.04649 -123.69272)"/><path class="cls-1" d="M198.15145,160.22351" transform="translate(-131.04649 -123.69272)"/><path class="cls-1" d="M197.80329,160.57166l33.25378-33.25378a12.16206,12.16206,0,0,1,17.14661-.176l13.607,13.607a12.16205,12.16205,0,0,1-.176,17.1466l-33.25378,33.25378" transform="translate(-131.04649 -123.69272)"/><path class="cls-1" d="M198.503,221.02712,165.24924,254.2809a12.16206,12.16206,0,0,1-17.14661.17605l-13.607-13.607a12.162,12.162,0,0,1,.17605-17.14661l33.25377-33.25378" transform="translate(-131.04649 -123.69272)"/><rect class="cls-1" x="182.03182" y="160.60956" width="43.24324" height="71.38704" transform="translate(-210.20502 77.80784) rotate(-45)"/><rect class="cls-1" x="178.54625" y="138.79964" width="42.09697" height="100.56844" transform="translate(61.11594 -209.44613) rotate(45)"/></svg>